<svg xmlns="http://www.w3.org/2000/svg" xmlns:xlink="http://www.w3.org/1999/xlink" width="833.901" height="572.016" viewBox="0 0 833.901 572.016">
  <defs>
    <linearGradient id="linear-gradient" x1="0.5" x2="0.5" y2="1" gradientUnits="objectBoundingBox">
      <stop offset="0" stop-color="#fec873"/>
      <stop offset="0.352" stop-color="#fe9dfd"/>
      <stop offset="1" stop-color="#1dbb8f"/>
    </linearGradient>
  </defs>
  <path id="blob_6_" data-name="blob(6)" d="M526,35.128c68.98,28.4,146.359,57.712,193.745,108.554,46.787,51.3,64.182,123.669,25.793,172.679-38.389,49.468-131.963,75.118-209.94,109.47-77.378,34.353-137.961,77.866-203.942,82.9-65.381,5.038-136.161-28.4-199.144-66.415C68.932,404.3,12.548,361.707-23.442,306.743c-36.59-54.506-52.785-121.379-38.989-189.168S-4.847-19.378,66.533-46.86c71.38-27.94,170.952-14.657,250.729,5.954C397.039-20.752,457.022,6.73,526,35.128Z" transform="translate(766.587 509.241) rotate(180)" fill="url(#linear-gradient)"/>
</svg>
