<svg xmlns="http://www.w3.org/2000/svg" viewBox="0 0 24 24" width="24" height="24"><path d="m15.42 16.94-2.25 2.17a2.09 2.09 0 0 1-1.52.56 2.09 2.09 0 0 1-1.52-.56l-3.61-3.63a2.18 2.18 0 0 1-.58-1.55 2.07 2.07 0 0 1 .58-1.52l3.6-3.65a2.1 2.1 0 0 1 1.53-.54 2.08 2.08 0 0 1 1.52.55l2.25 2.17A1.14 1.14 0 0 0 17 9.33l-2.17-2.2a4.24 4.24 0 0 0-2-1.12l2.06-2.08a1.15 1.15 0 0 0-1.62-1.62l-8.43 8.42a4.48 4.48 0 0 0-1.24 3.2 4.57 4.57 0 0 0 1.24 3.23l3.63 3.63A4.38 4.38 0 0 0 11.66 22a4.45 4.45 0 0 0 3.2-1.25L17 18.56a1.14 1.14 0 0 0-1.61-1.62z"/><path d="M19.34 12.84h-8.45a1.12 1.12 0 0 0 0 2.24h8.45a1.12 1.12 0 0 0 0-2.24z"/></svg>