<svg xmlns="http://www.w3.org/2000/svg" viewBox="0 0 24 24" width="24" height="24"><path d="M13.93 9a1.84 1.84 0 0 0-1.28-.5h-2v5.74h.75V11.9h1.2a1.85 1.85 0 0 0 1.28-.5 1.63 1.63 0 0 0 .52-1.23A1.58 1.58 0 0 0 13.93 9zm-.5 1.9a1 1 0 0 1-.73.3h-1.25v-2h1.25a.9.9 0 0 1 .73.3 1 1 0 0 1 0 1.38zM16.18 10.18a1.92 1.92 0 0 0-1.63.77l.65.4a1.09 1.09 0 0 1 1-.52 1.11 1.11 0 0 1 .72.27.81.81 0 0 1 .3.65v.18a1.89 1.89 0 0 0-1.07-.25 1.89 1.89 0 0 0-1.25.32 1.2 1.2 0 0 0-.45 1 1.35 1.35 0 0 0 .45 1 1.74 1.74 0 0 0 1.1.37 1.45 1.45 0 0 0 1.23-.67v.54H18v-2.41a1.56 1.56 0 0 0-.47-1.2 1.84 1.84 0 0 0-1.35-.45zm.7 3.17a1.18 1.18 0 0 1-.83.35.94.94 0 0 1-.57-.2.56.56 0 0 1-.25-.47.6.6 0 0 1 .3-.53 1.21 1.21 0 0 1 .75-.22 1.58 1.58 0 0 1 1 .27 1 1 0 0 1-.4.8zM22 10.33v-.03l-.01.03H22zM20.08 13.15h-.03l-1.17-2.82h-.8L19.7 14l-.92 1.97h.75l2.46-5.64h-.76l-1.15 2.82zM5.31 10.73V12h1.77a1.52 1.52 0 0 1-.65 1 2 2 0 0 1-3-1.05 1.91 1.91 0 0 1 0-1.27 1.91 1.91 0 0 1 1.88-1.35 1.83 1.83 0 0 1 1.27.5l1-.95A3.14 3.14 0 0 0 5.33 8 3.26 3.26 0 0 0 2.4 9.83a3.24 3.24 0 0 0 0 3 3.28 3.28 0 0 0 2.95 1.82 3.24 3.24 0 0 0 2.19-.79 3.22 3.22 0 0 0 1-2.43c0-.22 0-.45-.05-.67z"/></svg>