<svg xmlns="http://www.w3.org/2000/svg" width="24" height="24" viewBox="0 0 24 24"><path d="m12.93 12.24-2.12 2.12L9.39 13l2.12-2.12-1.41-1.47L8 11.54l-1.44-1.42-.7-.71-.71.71-.71.71L3 12.24a3 3 0 0 0 0 4.25l1.44 1.41L2.32 20l1.42 1.41 2.12-2.12 1.41 1.42a3 3 0 0 0 4.24 0l1.42-1.42.71-.7.7-.71-.7-.71-1.42-1.41 2.12-2.12zm-2.83 7.07a1 1 0 0 1-1.41 0l-4.25-4.24a1 1 0 0 1 0-1.41l1.42-1.42 5.65 5.66zm9.19-13.43 2.12-2.12L20 2.34l-2.12 2.12-1.42-1.41a3 3 0 0 0-4.24 0l-1.41 1.41-.71.71-.71.71.71.71 7.07 7.07.71.7.71-.7.7-.71 1.42-1.41a3 3 0 0 0 0-4.25zm0 4.24-1.41 1.42-5.66-5.66 1.42-1.42a1 1 0 0 1 1.41 0l4.24 4.25a1 1 0 0 1 0 1.41z"/></svg>